<svg width="3198" height="703" viewBox="0 0 3198 703" fill="none" xmlns="http://www.w3.org/2000/svg">
<rect width="3198" height="703" fill="white"/>
<path d="M273 468L268.8 375.6L489 147H576.6L393.6 341.4L350.4 388.8L273 468ZM203.4 567V147H281.4V567H203.4ZM496.2 567L335.4 375.6L387 318.6L587.4 567H496.2ZM739.833 571.2C707.033 571.2 677.833 564.2 652.233 550.2C626.633 535.8 606.433 516.2 591.633 491.4C576.833 466.6 569.433 438.4 569.433 406.8C569.433 374.8 576.833 346.6 591.633 322.2C606.433 297.4 626.633 278 652.233 264C677.833 250 707.033 243 739.833 243C773.033 243 802.433 250 828.033 264C854.033 278 874.233 297.2 888.633 321.6C903.433 346 910.833 374.4 910.833 406.8C910.833 438.4 903.433 466.6 888.633 491.4C874.233 516.2 854.033 535.8 828.033 550.2C802.433 564.2 773.033 571.2 739.833 571.2ZM739.833 507C758.233 507 774.633 503 789.033 495C803.433 487 814.633 475.4 822.633 460.2C831.033 445 835.233 427.2 835.233 406.8C835.233 386 831.033 368.2 822.633 353.4C814.633 338.2 803.433 326.6 789.033 318.6C774.633 310.6 758.433 306.6 740.433 306.6C722.033 306.6 705.633 310.6 691.233 318.6C677.233 326.6 666.033 338.2 657.633 353.4C649.233 368.2 645.033 386 645.033 406.8C645.033 427.2 649.233 445 657.633 460.2C666.033 475.4 677.233 487 691.233 495C705.633 503 721.833 507 739.833 507ZM958.552 567V246.6H1029.95V334.8L1021.55 309C1031.15 287.4 1046.15 271 1066.55 259.8C1087.35 248.6 1113.15 243 1143.95 243V314.4C1140.75 313.6 1137.75 313.2 1134.95 313.2C1132.15 312.8 1129.35 312.6 1126.55 312.6C1098.15 312.6 1075.55 321 1058.75 337.8C1041.95 354.2 1033.55 378.8 1033.55 411.6V567H958.552ZM1331.25 571.2C1295.65 571.2 1264.45 564.2 1237.65 550.2C1211.25 535.8 1190.65 516.2 1175.85 491.4C1161.45 466.6 1154.25 438.4 1154.25 406.8C1154.25 374.8 1161.25 346.6 1175.25 322.2C1189.65 297.4 1209.25 278 1234.05 264C1259.25 250 1287.85 243 1319.85 243C1351.05 243 1378.85 249.8 1403.25 263.4C1427.65 277 1446.85 296.2 1460.85 321C1474.85 345.8 1481.85 375 1481.85 408.6C1481.85 411.8 1481.65 415.4 1481.25 419.4C1481.25 423.4 1481.05 427.2 1480.65 430.8H1213.65V381H1441.05L1411.65 396.6C1412.05 378.2 1408.25 362 1400.25 348C1392.25 334 1381.25 323 1367.25 315C1353.65 307 1337.85 303 1319.85 303C1301.45 303 1285.25 307 1271.25 315C1257.65 323 1246.85 334.2 1238.85 348.6C1231.25 362.6 1227.45 379.2 1227.45 398.4V410.4C1227.45 429.6 1231.85 446.6 1240.65 461.4C1249.45 476.2 1261.85 487.6 1277.85 495.6C1293.85 503.6 1312.25 507.6 1333.05 507.6C1351.05 507.6 1367.25 504.8 1381.65 499.2C1396.05 493.6 1408.85 484.8 1420.05 472.8L1460.25 519C1445.85 535.8 1427.65 548.8 1405.65 558C1384.05 566.8 1359.25 571.2 1331.25 571.2ZM1463.82 567L1640.82 323.4V382.2L1472.22 147H1560.42L1685.82 321L1649.82 321.6L1774.02 147H1858.62L1691.22 378V321.6L1869.42 567H1779.42L1647.42 382.2H1682.82L1552.62 567H1463.82Z" fill="#636363"/>
</svg>
